<svg width="1512" height="982" viewBox="0 0 1512 982" fill="none" xmlns="http://www.w3.org/2000/svg">
<rect width="1512" height="982" fill="#282828"/>
<path d="M125.636 687.551C116.64 688.616 109.656 692.937 104.685 700.513C99.7131 708.089 97.2273 717.381 97.2273 728.389C97.2273 736.438 98.5293 743.482 101.134 749.518C103.738 755.496 107.318 760.172 111.876 763.545C116.433 766.86 121.612 768.517 127.412 768.517C132.265 768.517 136.438 767.363 139.93 765.055C143.362 762.687 146.233 759.669 148.541 755.999C150.79 752.33 152.655 748.483 154.134 744.458C155.555 740.433 156.709 736.734 157.597 733.361L162.568 714.895C163.811 710.16 165.527 704.893 167.717 699.092C169.907 693.233 172.896 687.64 176.684 682.313C180.413 676.927 185.207 672.488 191.066 668.996C196.925 665.504 204.116 663.759 212.639 663.759C222.464 663.759 231.342 666.333 239.273 671.482C247.204 676.572 253.507 684.03 258.183 693.854C262.858 703.62 265.196 715.487 265.196 729.455C265.196 742.475 263.095 753.75 258.893 763.279C254.691 772.749 248.831 780.206 241.315 785.651C233.798 791.037 225.068 794.085 215.125 794.795V772.068C221.991 771.476 227.672 769.168 232.17 765.143C236.609 761.06 239.924 755.911 242.114 749.696C244.244 743.422 245.31 736.675 245.31 729.455C245.31 721.05 243.948 713.504 241.226 706.816C238.444 700.128 234.597 694.831 229.685 690.925C224.713 687.018 218.913 685.065 212.284 685.065C206.247 685.065 201.335 686.752 197.547 690.126C193.759 693.499 190.681 697.938 188.314 703.442C185.946 708.947 183.875 714.895 182.099 721.287L175.707 743.659C171.624 757.864 165.794 769.109 158.218 777.395C150.642 785.681 140.729 789.824 128.477 789.824C118.297 789.824 109.42 787.072 101.844 781.567C94.2088 776.004 88.2902 768.547 84.0881 759.195C79.8267 749.785 77.696 739.279 77.696 727.679C77.696 715.96 79.7971 705.544 83.9993 696.429C88.1423 687.314 93.8241 680.094 101.045 674.767C108.265 669.381 116.463 666.54 125.636 666.244L125.636 687.551ZM212.284 610.869L186.361 611.224V606.963L125.636 547.303V521.38L189.912 584.945V586.721L212.284 610.869ZM262 630.4H80.1818L80.1818 609.448H262V630.4ZM262 543.752L194.528 597.019L179.969 582.105L262 517.119V543.752ZM262 494.414H125.636V473.462H262V494.414ZM102.909 483.76C102.909 487.844 101.518 491.366 98.7365 494.325C95.9548 497.225 92.6108 498.675 88.7045 498.675C84.7983 498.675 81.4543 497.225 78.6726 494.325C75.8909 491.366 74.5 487.844 74.5 483.76C74.5 479.676 75.8909 476.185 78.6726 473.284C81.4543 470.325 84.7983 468.846 88.7045 468.846C92.6108 468.846 95.9548 470.325 98.7365 473.284C101.518 476.185 102.909 479.676 102.909 483.76ZM80.1818 414.136H262V435.088H80.1818V414.136ZM80.1818 354.81H262V375.761H80.1818V354.81ZM156.176 219.844L161.503 238.665C158.366 239.849 155.318 241.595 152.359 243.903C149.34 246.152 146.854 249.23 144.901 253.136C142.948 257.042 141.972 262.044 141.972 268.14C141.972 276.485 143.895 283.439 147.742 289.003C151.53 294.507 156.354 297.259 162.213 297.259C167.421 297.259 171.535 295.365 174.553 291.577C177.572 287.789 180.087 281.871 182.099 273.822L187.071 253.58C190.03 241.388 194.558 232.303 200.654 226.325C206.691 220.347 214.474 217.358 224.003 217.358C231.815 217.358 238.799 219.608 244.955 224.106C251.11 228.545 255.963 234.759 259.514 242.749C263.065 250.739 264.841 260.031 264.841 270.626C264.841 284.534 261.822 296.046 255.786 305.16C249.749 314.275 240.93 320.046 229.33 322.472L224.358 302.586C231.697 300.692 237.201 297.111 240.871 291.844C244.54 286.517 246.375 279.563 246.375 270.981C246.375 261.215 244.304 253.462 240.161 247.721C235.958 241.921 230.928 239.02 225.068 239.02C220.333 239.02 216.368 240.678 213.172 243.992C209.917 247.306 207.49 252.396 205.892 259.262L200.565 281.989C197.606 294.477 193.019 303.651 186.805 309.51C180.531 315.311 172.689 318.211 163.278 318.211C155.584 318.211 148.778 316.05 142.859 311.73C136.941 307.35 132.295 301.402 128.921 293.885C125.548 286.31 123.861 277.728 123.861 268.14C123.861 254.645 126.82 244.051 132.739 236.357C138.657 228.604 146.47 223.099 156.176 219.844Z" fill="#474747"/>
</svg>
