<svg xmlns="http://www.w3.org/2000/svg" version="1.1" xmlns:xlink="http://www.w3.org/1999/xlink" xmlns:svgjs="http://svgjs.com/svgjs" width="1440" height="560" preserveAspectRatio="none" viewBox="0 0 1440 560">
    <g mask="url(&quot;#SvgjsMask1140&quot;)" fill="none">
        <rect width="1440" height="560" x="0" y="0" fill="rgba(44, 44, 44, 1)"></rect>
        <path d="M0,392.275C71.318,380.479,128.92,333.593,185.361,288.428C236.698,247.347,275.284,197.009,312.097,142.53C356.009,77.544,434.61,16.716,421.178,-60.556C407.679,-138.218,309.701,-165.241,249.711,-216.376C199.864,-258.866,160.336,-313.881,98.534,-335.576C34.941,-357.9,-33.067,-350.146,-99.532,-338.975C-173.62,-326.523,-256.943,-321.971,-308.354,-267.19C-360.14,-212.009,-365.822,-128.554,-367.996,-52.91C-369.997,16.74,-342.541,80.235,-320.233,146.246C-295.234,220.221,-291.375,309.468,-229.455,357.04C-166.824,405.158,-77.922,405.164,0,392.275" fill="#1d1d1d"></path>
        <path d="M1440 829.77C1515.074 842.985 1588.279 931.4929999999999 1654.649 894 1719.538 857.3430000000001 1690.503 753.877 1704.067 680.595 1714.1390000000001 626.178 1727.811 574.375 1724.028 519.163 1719.988 460.20799999999997 1719.8020000000001 395.73900000000003 1681.465 350.769 1643.054 305.712 1578.407 298.781 1521.684 281.809 1464.658 264.747 1408.63 245.599 1349.391 251.413 1281.469 258.079 1210.544 271.537 1159.926 317.315 1106.801 365.36 1073.301 435.044 1067.409 506.429 1061.667 576.001 1090.906 643.372 1128.1399999999999 702.422 1162.154 756.367 1209.94 802.0029999999999 1268.98 826.1120000000001 1322.859 848.114 1382.683 819.681 1440 829.77" fill="#3b3b3b"></path>
    </g>
    <defs>
        <mask id="SvgjsMask1140">
            <rect width="1440" height="560" fill="#ffffff"></rect>
        </mask>
    </defs>
</svg>