<svg width="1512" height="982" viewBox="0 0 1512 982" fill="none" xmlns="http://www.w3.org/2000/svg">
<rect width="1512" height="982" fill="#282828"/>
<path d="M293.009 289.05L293.427 107.232L354.861 107.373C369.125 107.406 380.778 110.007 389.822 115.177C398.925 120.288 405.656 127.199 410.016 135.909C414.376 144.62 416.543 154.331 416.519 165.044C416.494 175.756 414.282 185.487 409.882 194.237C405.541 202.986 398.837 209.955 389.77 215.142C380.703 220.27 369.096 222.818 354.951 222.786L310.917 222.685L310.962 203.153L354.286 203.253C364.051 203.275 371.897 201.607 377.824 198.247C383.75 194.887 388.051 190.339 390.728 184.604C393.464 178.81 394.84 172.274 394.857 164.994C394.873 157.714 393.527 151.2 390.818 145.453C388.168 139.706 383.857 135.198 377.887 131.929C371.917 128.601 363.99 126.926 354.106 126.903L315.399 126.814L315.026 289.101L293.009 289.05ZM448.859 289.408L449.172 153.045L469.414 153.091L469.366 173.688L470.787 173.691C473.288 166.95 477.799 161.485 484.319 157.298C490.839 153.111 498.183 151.027 506.35 151.045C507.889 151.049 509.813 151.083 512.121 151.147C514.429 151.212 516.175 151.305 517.358 151.426L517.309 172.733C516.599 172.553 514.972 172.283 512.428 171.922C509.943 171.502 507.31 171.289 504.528 171.283C497.899 171.267 491.978 172.645 486.763 175.414C481.608 178.125 477.515 181.904 474.486 186.75C471.515 191.537 470.023 197.008 470.009 203.164L469.811 289.456L448.859 289.408ZM593.117 292.58C580.806 292.552 570.012 289.598 560.733 283.717C551.514 277.836 544.312 269.622 539.128 259.075C534.003 248.529 531.457 236.212 531.489 222.126C531.522 207.922 534.125 195.528 539.298 184.946C544.531 174.363 551.77 166.153 561.017 160.315C570.322 154.477 581.13 151.572 593.441 151.601C605.751 151.629 616.516 154.583 625.736 160.464C635.015 166.345 642.216 174.588 647.341 185.194C652.525 195.8 655.101 208.205 655.068 222.41C655.036 236.496 652.403 248.801 647.171 259.324C641.997 269.847 634.758 278.027 625.452 283.865C616.206 289.704 605.428 292.609 593.117 292.58ZM593.16 273.759C602.512 273.781 610.211 271.401 616.259 266.621C622.307 261.841 626.79 255.548 629.708 247.742C632.626 239.937 634.096 231.476 634.116 222.362C634.137 213.247 632.707 204.751 629.825 196.872C626.943 188.994 622.489 182.621 616.463 177.754C610.437 172.887 602.749 170.443 593.398 170.422C584.046 170.4 576.347 172.809 570.299 177.648C564.251 182.488 559.767 188.84 556.849 196.705C553.931 204.57 552.462 213.06 552.441 222.174C552.42 231.289 553.85 239.756 556.732 247.575C559.615 255.394 564.069 261.707 570.094 266.515C576.12 271.323 583.809 273.738 593.16 273.759ZM687.209 153.592L708.16 153.64L707.824 299.946C707.805 308.35 706.338 315.627 703.424 321.776C700.569 327.924 696.237 332.679 690.43 336.039C684.681 339.399 677.427 341.07 668.667 341.049C667.957 341.048 667.247 341.046 666.537 341.045C665.826 341.043 665.116 341.041 664.406 341.04L664.451 321.508C665.161 321.51 665.812 321.512 666.404 321.513C666.996 321.514 667.647 321.516 668.357 321.517C674.749 321.532 679.429 319.649 682.397 315.868C685.365 312.146 686.857 306.823 686.873 299.898L687.209 153.592ZM697.559 130.888C693.475 130.879 689.957 129.48 687.004 126.691C684.111 123.903 682.668 120.555 682.677 116.649C682.686 112.743 684.144 109.402 687.05 106.627C690.016 103.852 693.541 102.47 697.624 102.479C701.708 102.488 705.197 103.887 708.091 106.676C711.044 109.464 712.516 112.811 712.507 116.718C712.498 120.624 711.01 123.965 708.045 126.739C705.138 129.515 701.643 130.897 697.559 130.888ZM803.388 293.063C790.249 293.033 778.922 290.107 769.406 284.285C759.95 278.404 752.659 270.219 747.534 259.732C742.468 249.185 739.952 236.928 739.984 222.96C740.016 208.992 742.589 196.688 747.703 186.046C752.877 175.345 760.058 167.016 769.245 161.06C778.492 155.044 789.271 152.05 801.581 152.079C808.684 152.095 815.694 153.295 822.614 155.678C829.533 158.061 835.827 161.923 841.497 167.263C847.167 172.543 851.678 179.538 855.032 188.246C858.385 196.954 860.047 207.67 860.018 220.395L859.998 229.273L754.885 229.031L754.926 210.921L838.733 211.113C838.75 203.419 837.227 196.55 834.164 190.506C831.159 184.462 826.849 179.688 821.235 176.183C815.679 172.678 809.114 170.917 801.538 170.9C793.193 170.881 785.968 172.935 779.862 177.064C773.816 181.134 769.157 186.45 765.887 193.012C762.617 199.575 760.973 206.614 760.956 214.13L760.928 226.204C760.904 236.503 762.66 245.236 766.194 252.406C769.788 259.517 774.777 264.944 781.161 268.687C787.544 272.371 794.968 274.223 803.431 274.242C808.936 274.255 813.909 273.497 818.351 271.968C822.853 270.381 826.735 268.022 829.998 264.893C833.26 261.704 835.785 257.745 837.571 253.014L857.799 258.742C855.653 265.603 852.058 271.632 847.016 276.828C841.973 281.966 835.749 285.976 828.345 288.859C820.94 291.683 812.621 293.085 803.388 293.063ZM947.12 293.394C934.336 293.364 923.334 290.32 914.115 284.262C904.896 278.204 897.813 269.872 892.866 259.267C887.919 248.661 885.461 236.552 885.492 222.939C885.524 209.09 888.097 196.874 893.211 186.291C898.385 175.65 905.565 167.351 914.753 161.394C923.999 155.378 934.778 152.385 947.089 152.413C956.677 152.435 965.314 154.23 973 157.799C980.686 161.368 986.978 166.354 991.875 172.757C996.773 179.161 999.804 186.625 1000.97 195.151L980.016 195.102C978.433 188.884 974.894 183.372 969.401 178.565C963.967 173.699 956.634 171.256 947.401 171.235C939.233 171.216 932.067 173.33 925.902 177.577C919.796 181.766 915.018 187.703 911.567 195.389C908.176 203.016 906.469 211.979 906.445 222.277C906.421 232.812 908.057 241.99 911.354 249.81C914.709 257.63 919.43 263.707 925.516 268.042C931.662 272.377 938.877 274.554 947.163 274.573C952.608 274.585 957.552 273.649 961.996 271.766C966.439 269.882 970.203 267.168 973.289 263.624C976.375 260.08 978.575 255.824 979.888 250.855L1000.84 250.903C999.638 258.95 996.691 266.193 992.001 272.634C987.37 279.015 981.232 284.091 973.589 287.861C966.004 291.573 957.182 293.417 947.12 293.394ZM1090.99 154.519L1090.95 172.275L1020.29 172.112L1020.33 154.357L1090.99 154.519ZM1041 121.734L1061.95 121.782L1061.65 251.753C1061.64 257.672 1062.49 262.113 1064.2 265.076C1065.96 267.98 1068.21 269.938 1070.93 270.951C1073.71 271.904 1076.64 272.384 1079.71 272.391C1082.02 272.397 1083.92 272.283 1085.4 272.049C1086.88 271.757 1088.06 271.523 1088.95 271.347L1093.17 290.178C1091.75 290.707 1089.76 291.235 1087.22 291.762C1084.67 292.348 1081.44 292.637 1077.54 292.628C1071.62 292.614 1065.82 291.328 1060.15 288.77C1054.53 286.212 1049.86 282.325 1046.15 277.108C1042.49 271.891 1040.67 265.318 1040.69 257.387L1041 121.734ZM1216.59 185.348L1197.76 190.631C1196.58 187.491 1194.84 184.439 1192.54 181.475C1190.3 178.451 1187.23 175.958 1183.32 173.996C1179.42 172.034 1174.42 171.046 1168.33 171.032C1159.98 171.013 1153.02 172.92 1147.45 176.755C1141.94 180.53 1139.17 185.347 1139.16 191.207C1139.15 196.415 1141.03 200.533 1144.81 203.56C1148.6 206.587 1154.51 209.116 1162.55 211.147L1182.78 216.165C1194.97 219.152 1204.04 223.701 1210.01 229.811C1215.97 235.861 1218.94 243.651 1218.92 253.18C1218.9 260.992 1216.64 267.971 1212.12 274.116C1207.67 280.261 1201.45 285.1 1193.45 288.633C1185.45 292.165 1176.15 293.92 1165.56 293.895C1151.65 293.863 1140.15 290.819 1131.04 284.761C1121.94 278.703 1116.19 269.871 1113.79 258.265L1133.69 253.339C1135.57 260.682 1139.14 266.195 1144.4 269.877C1149.71 273.558 1156.66 275.409 1165.25 275.429C1175.01 275.451 1182.77 273.397 1188.52 269.268C1194.33 265.079 1197.24 260.055 1197.26 254.195C1197.27 249.461 1195.62 245.491 1192.31 242.288C1189 239.025 1183.92 236.587 1177.06 234.973L1154.34 229.594C1141.86 226.606 1132.7 221.998 1126.85 215.77C1121.07 209.483 1118.19 201.634 1118.21 192.224C1118.22 184.53 1120.4 177.728 1124.73 171.82C1129.13 165.911 1135.09 161.279 1142.61 157.923C1150.19 154.566 1158.78 152.899 1168.37 152.921C1181.86 152.952 1192.45 155.936 1200.13 161.872C1207.87 167.809 1213.36 175.634 1216.59 185.348Z" fill="#474747"/>
</svg>
